<svg xmlns="http://www.w3.org/2000/svg" width="1200" height="900" viewBox="0 0 1200 900" role="img" aria-labelledby="title">
  <title id="title">3AM Rentals equipment image placeholder</title>
  <rect width="1200" height="900" fill="#091725"/>
  <path d="M0 180H1200M0 360H1200M0 540H1200M0 720H1200M200 0V900M400 0V900M600 0V900M800 0V900M1000 0V900" stroke="#23425e" opacity=".38"/>
  <rect x="205" y="170" width="790" height="560" fill="#102b43" stroke="#52718c" stroke-width="3"/>
  <path d="M205 215v-45h45M950 170h45v45M205 685v45h45M950 730h45v-45" fill="none" stroke="#ffbb00" stroke-width="8"/>
  <g fill="#fff" transform="translate(522 292)"><path d="M78 0 0 135h156z"/><path d="m168 0-78 135h156z"/><path d="m123 142-78 135h156z"/></g>
  <path d="M525 600h150" stroke="#ffbb00" stroke-width="6"/>
  <text x="600" y="645" text-anchor="middle" fill="#fff" font-family="Arial, sans-serif" font-size="43" font-weight="700" letter-spacing="5">3AM RENTALS</text>
  <text x="600" y="690" text-anchor="middle" fill="#b3c7d9" font-family="Arial, sans-serif" font-size="22" letter-spacing="2">EQUIPMENT PHOTO</text>
</svg>
